<svg width="128" height="128" viewBox="0 0 128 128" fill="none" xmlns="http://www.w3.org/2000/svg">
<path d="M84.3466 26.6667V33.3333H86.544C94.2826 33.3333 100.837 39.2053 101.403 46.9493L105.296 100.283C105.92 108.864 98.992 116 90.4373 116H37.5627C29.008 116 22.08 108.864 22.704 100.283L26.5973 46.9493C27.1627 39.2 33.7173 33.3333 41.456 33.3333H43.6533V26.6667C43.6533 18.4853 50.4053 12 58.5547 12H69.4507C77.5947 12 84.3466 18.4853 84.3466 26.6667ZM51.6533 26.6667V33.3333H76.3466V26.6667C76.3466 23.0667 73.3387 20 69.4507 20H58.5547C54.6613 20 51.6533 23.0667 51.6533 26.6667Z" fill="black"/>
</svg>
