<svg width="128" height="128" viewBox="0 0 128 128" fill="none" xmlns="http://www.w3.org/2000/svg">
<path d="M21.3333 106.667H58.3626M58.3626 106.667H58.9706M58.3626 106.667C48.514 106.586 39.096 102.618 32.1603 95.6251C25.2246 88.6324 21.333 79.1823 21.3333 69.3333V47.5893C21.3333 44.8693 23.536 42.6667 26.256 42.6667H91.0773C93.7973 42.6667 96 44.8693 96 47.5893V48M58.9706 106.667H96M58.9706 106.667C68.8193 106.586 78.2373 102.618 85.173 95.6251C92.1087 88.6324 96.0003 79.1823 96 69.3333M96 48H104C107.536 48 110.928 49.4048 113.428 51.9052C115.929 54.4057 117.333 57.7971 117.333 61.3333C117.333 64.8696 115.929 68.2609 113.428 70.7614C110.928 73.2619 107.536 74.6667 104 74.6667H96V69.3333M96 48V69.3333M80 16L74.6666 26.6667M64 16L58.6666 26.6667M48 16L42.6666 26.6667" stroke="white" stroke-width="10.6667" stroke-linecap="round" stroke-linejoin="round"/>
</svg>
